<?xml version="1.0" encoding="UTF-8" standalone="no"?>
<!DOCTYPE svg PUBLIC "-//W3C//DTD SVG 1.1//EN" "http://www.w3.org/Graphics/SVG/1.1/DTD/svg11.dtd">
<svg width="100%" height="100%" viewBox="0 0 4327 4078" version="1.1" xmlns="http://www.w3.org/2000/svg" xmlns:xlink="http://www.w3.org/1999/xlink" xml:space="preserve" xmlns:serif="http://www.serif.com/" style="fill-rule:evenodd;clip-rule:evenodd;stroke-linejoin:round;stroke-miterlimit:2;">
    <g transform="matrix(1,0,0,1,-248.637815,-536.944517)">
        <g>
            <g transform="matrix(9.815856,-5.190372,5.219183,9.761671,-3608.588347,2265.483853)">
                <path d="M354.023,339.357C350.997,339.357 347.943,340.417 345.412,342.591L301.685,380.143C296.266,384.797 295.443,393.138 299.841,398.758C302.474,402.123 306.308,403.863 310.186,403.863C313.213,403.863 316.266,402.803 318.798,400.629L362.524,363.077C367.943,358.423 368.767,350.082 364.368,344.462C361.735,341.098 357.901,339.357 354.023,339.357Z" style="fill:rgb(74,40,115);fill-rule:nonzero;"/>
                <clipPath id="_clip1">
                    <path d="M354.023,339.357C350.997,339.357 347.943,340.417 345.412,342.591L301.685,380.143C296.266,384.797 295.443,393.138 299.841,398.758C302.474,402.123 306.308,403.863 310.186,403.863C313.213,403.863 316.266,402.803 318.798,400.629L362.524,363.077C367.943,358.423 368.767,350.082 364.368,344.462C361.735,341.098 357.901,339.357 354.023,339.357Z" clip-rule="nonzero"/>
                </clipPath>
                <g clip-path="url(#_clip1)">
                    <path d="M362.524,363.077L318.798,400.629C313.022,405.59 304.529,404.748 299.841,398.758C295.443,393.138 296.266,384.797 301.685,380.143L345.412,342.591C351.188,337.631 359.681,338.472 364.368,344.462C368.767,350.082 367.943,358.423 362.524,363.077Z" style="fill:rgb(74,40,115);fill-rule:nonzero;"/>
                </g>
            </g>
            <g transform="matrix(-9.815856,-5.190372,-5.219183,9.761671,8621.766811,2265.483853)">
                <path d="M354.023,339.357C350.997,339.357 347.943,340.417 345.412,342.591L301.685,380.143C296.266,384.797 295.443,393.138 299.841,398.758C302.474,402.123 306.308,403.863 310.186,403.863C313.213,403.863 316.266,402.803 318.798,400.629L362.524,363.077C367.943,358.423 368.767,350.082 364.368,344.462C361.735,341.098 357.901,339.357 354.023,339.357Z" style="fill:rgb(74,40,115);fill-rule:nonzero;"/>
                <clipPath id="_clip2">
                    <path d="M354.023,339.357C350.997,339.357 347.943,340.417 345.412,342.591L301.685,380.143C296.266,384.797 295.443,393.138 299.841,398.758C302.474,402.123 306.308,403.863 310.186,403.863C313.213,403.863 316.266,402.803 318.798,400.629L362.524,363.077C367.943,358.423 368.767,350.082 364.368,344.462C361.735,341.098 357.901,339.357 354.023,339.357Z" clip-rule="nonzero"/>
                </clipPath>
                <g clip-path="url(#_clip2)">
                    <path d="M362.524,363.077L318.798,400.629C313.022,405.59 304.529,404.748 299.841,398.758C295.443,393.138 296.266,384.797 301.685,380.143L345.412,342.591C351.188,337.631 359.681,338.472 364.368,344.462C368.767,350.082 367.943,358.423 362.524,363.077Z" style="fill:rgb(74,40,115);fill-rule:nonzero;"/>
                </g>
            </g>
            <g transform="matrix(11.117144,0,0,11.055776,-3596.875384,1839.290421)">
                <path d="M345.908,113.754L345.908,44.331C345.908,43.221 346.129,42.155 346.536,41.161C364.595,-49.48 444.566,-117.798 540.515,-117.798C636.62,-117.798 716.694,-49.26 734.582,41.6C734.846,42.361 735.002,43.161 735.036,43.987C735.065,44.144 735.094,44.301 735.122,44.458L735.043,44.458L735.043,113.754C735.043,119.115 729.89,123.467 723.542,123.467C722.542,123.467 721.572,123.358 720.646,123.156C717.008,133.387 705.764,140.849 692.472,140.849C676.239,140.849 663.061,129.72 663.061,116.011L663.061,40.672C663.061,26.963 676.239,15.833 692.472,15.833C695.708,15.833 698.823,16.276 701.737,17.093C676.564,-47.354 613.877,-93.012 540.515,-93.012C467.163,-93.012 404.482,-47.366 379.304,17.068C382.192,16.267 385.276,15.833 388.48,15.833C404.713,15.833 417.891,26.963 417.891,40.672L417.891,116.011C417.891,129.72 404.713,140.849 388.48,140.849C375.188,140.849 363.943,133.387 360.306,123.156C359.38,123.358 358.41,123.467 357.41,123.467C351.062,123.467 345.908,119.115 345.908,113.754Z" style="fill:rgb(62,0,101);"/>
            </g>
            <g transform="matrix(11.117144,0,0,11.055776,-2078.23447,2054.952062)">
                <path d="M404.603,-88.178C486.331,-88.178 552.684,-21.825 552.684,59.903C552.684,141.631 486.331,207.984 404.603,207.984C322.875,207.984 256.522,141.631 256.522,59.903C256.522,-21.825 322.875,-88.178 404.603,-88.178ZM404.764,-49.585C344.336,-49.585 295.276,-0.525 295.276,59.903C295.276,120.331 344.336,169.391 404.764,169.391C465.192,169.391 514.252,120.331 514.252,59.903C514.252,-0.525 465.192,-49.585 404.764,-49.585Z" style="fill:url(#_Linear3);"/>
            </g>
            <g transform="matrix(11.117144,0,-0,11.055776,-862.231405,-1651.399656)">
                <path d="M292.927,415.289L231.277,362.423C225.854,357.773 225.025,349.433 229.419,343.81C232.052,340.441 235.89,338.698 239.772,338.697C242.795,338.697 245.844,339.754 248.374,341.923L303.857,389.501L338.785,359.504C341.317,357.33 344.371,356.27 347.397,356.27C351.275,356.27 355.109,358.011 357.742,361.375C362.141,366.995 361.317,375.336 355.898,379.99L312.172,417.542C309.64,419.716 306.587,420.776 303.56,420.776C299.682,420.776 295.848,419.036 293.215,415.671C293.116,415.545 293.02,415.418 292.927,415.289Z" style="fill:url(#_Linear4);"/>
            </g>
        </g>
    </g>
    <defs>
        <linearGradient id="_Linear3" x1="0" y1="0" x2="1" y2="0" gradientUnits="userSpaceOnUse" gradientTransform="matrix(-96.778888,-93.464455,18.51803,-19.388177,453.814844,123.620507)"><stop offset="0" style="stop-color:rgb(74,40,115);stop-opacity:1"/><stop offset="1" style="stop-color:rgb(170,142,194);stop-opacity:1"/></linearGradient>
        <linearGradient id="_Linear4" x1="0" y1="0" x2="1" y2="0" gradientUnits="userSpaceOnUse" gradientTransform="matrix(-79.323236,-70.622105,0.183118,-0.207969,316.357171,412.718662)"><stop offset="0" style="stop-color:rgb(74,40,115);stop-opacity:1"/><stop offset="1" style="stop-color:rgb(170,142,194);stop-opacity:1"/></linearGradient>
    </defs>
</svg>
